<svg version="1.0" xmlns="http://www.w3.org/2000/svg"
 width="50.000000pt" height="50.000000pt" viewBox="0 0 50.000000 50.000000"
 preserveAspectRatio="xMidYMid meet">
<metadata>
Created by potrace 1.13, written by Peter Selinger 2001-2015
</metadata>
<g transform="translate(0.000000,50.000000) scale(0.100000,-0.100000)"
fill="#000000" stroke="none">
<path d="M165 491 c-3 -2 -5 -12 -5 -22 0 -13 9 -19 33 -21 l32 -3 0 -171 c0
-192 -5 -207 -70 -220 -37 -7 -89 15 -99 41 -11 30 -6 82 9 95 13 10 15 9 15
-9 0 -28 27 -38 47 -18 20 20 10 62 -18 78 -31 16 -67 3 -89 -34 -37 -61 -16
-151 44 -189 24 -15 42 -18 81 -13 28 4 118 9 200 13 l150 7 0 95 c0 82 -2 95
-17 98 -16 3 -18 -5 -18 -61 0 -43 -5 -68 -14 -76 -9 -7 -42 -11 -88 -9 l-73
3 0 85 0 85 35 0 c34 0 35 -1 38 -45 3 -43 17 -64 34 -54 4 3 8 61 8 130 0
114 -2 125 -17 122 -13 -2 -19 -16 -23 -48 -5 -44 -6 -45 -40 -45 l-35 0 -3
52 c-5 79 7 93 76 93 78 0 86 -8 92 -82 4 -50 9 -64 23 -66 16 -3 17 5 15 95
l-3 98 -158 1 c-87 0 -160 -2 -162 -5z"/>
</g>
</svg>
